<?xml version="1.0" standalone="no"?><!DOCTYPE svg PUBLIC "-//W3C//DTD SVG 1.1//EN" "http://www.w3.org/Graphics/SVG/1.1/DTD/svg11.dtd"><svg t="1719850538565" class="icon" viewBox="0 0 1024 1024" version="1.1" xmlns="http://www.w3.org/2000/svg" p-id="1765" xmlns:xlink="http://www.w3.org/1999/xlink" width="200" height="200"><path d="M768 213.333333v170.666667h85.333333V213.333333a128 128 0 0 0-128-128H298.666667a128 128 0 0 0-128 128v594.517334c0 17.194667 3.285333 33.706667 9.941333 49.493333 6.4 15.189333 15.36 28.672 27.008 40.448 11.648 11.776 25.045333 20.949333 40.192 27.52 15.658667 6.826667 32.128 10.325333 49.322667 10.538667l235.690666 2.816H725.333333a128 128 0 0 0 128-128v-85.333334h-85.333333v85.333334a42.666667 42.666667 0 0 1-42.666667 42.666666h-191.488l-235.690666-2.816a41.130667 41.130667 0 0 1-29.866667-12.672 41.130667 41.130667 0 0 1-12.288-29.994666V213.333333a42.666667 42.666667 0 0 1 42.666667-42.666666h426.666666a42.666667 42.666667 0 0 1 42.666667 42.666666z" fill="#FCB056" p-id="1766"></path><path d="M341.333333 512a42.666667 42.666667 0 0 0 42.666667 42.666667h256a42.666667 42.666667 0 1 0 0-85.333334H384a42.666667 42.666667 0 0 0-42.666667 42.666667zM341.333333 341.333333a42.666667 42.666667 0 0 0 42.666667 42.666667h256a42.666667 42.666667 0 1 0 0-85.333333H384a42.666667 42.666667 0 0 0-42.666667 42.666666zM341.333333 682.666667a42.666667 42.666667 0 0 0 42.666667 42.666666h85.333333a42.666667 42.666667 0 1 0 0-85.333333H384a42.666667 42.666667 0 0 0-42.666667 42.666667zM568.405333 715.306667l-0.085333 0.085333a42.666667 42.666667 0 1 0 58.069333 62.549333l0.042667-0.085333 298.581333-277.248-58.026666-62.549333-298.581334 277.248z" fill="#FCB056" p-id="1767"></path><path d="M469.333333 341.333333h298.666667a42.666667 42.666667 0 0 1 42.666667 42.666667v426.666667a42.666667 42.666667 0 0 1-42.666667 42.666666h-298.666667a42.666667 42.666667 0 0 1-42.666666-42.666666V384a42.666667 42.666667 0 0 1 42.666666-42.666667z" fill="#FCB056" fill-opacity=".5" p-id="1768"></path></svg>