<?xml version="1.0" standalone="no"?><!DOCTYPE svg PUBLIC "-//W3C//DTD SVG 1.1//EN" "http://www.w3.org/Graphics/SVG/1.1/DTD/svg11.dtd"><svg t="1719850550101" class="icon" viewBox="0 0 1024 1024" version="1.1" xmlns="http://www.w3.org/2000/svg" p-id="1918" xmlns:xlink="http://www.w3.org/1999/xlink" width="200" height="200"><path d="M512 512a213.333333 213.333333 0 1 0 0-426.666667 213.333333 213.333333 0 0 0 0 426.666667z m0-341.333333a128 128 0 1 1 0 256 128 128 0 0 1 0-256z" fill="#FCB056" p-id="1919"></path><path d="M642.773333 574.762667c22.485333 9.301333 40.277333 20.053333 53.333334 32.341333l58.453333-62.208c-20.693333-19.413333-47.104-35.754667-79.232-49.024-47.701333-19.669333-102.144-29.525333-163.328-29.525333a380.373333 380.373333 0 0 0-130.816 22.698666 345.301333 345.301333 0 0 0-108.16 62.72 298.24 298.24 0 0 0-74.496 94.976A265.258667 265.258667 0 0 0 170.666667 765.44c0 37.333333 11.136 67.114667 33.450666 89.301333 18.773333 18.688 44.373333 30.506667 76.885334 35.413334 22.528 3.456 49.792 3.669333 81.792 0.64 17.749333-1.706667 43.776-5.248 78.08-10.794667 36.181333-5.845333 59.904-8.746667 71.125333-8.746667 39.594667 0 73.258667 1.024 100.949333 3.114667l2.56 0.170667 6.272-85.077334-2.474666-0.213333A1469.013333 1469.013333 0 0 0 512 785.92c-10.88 0-24.490667 1.066667-40.746667 3.157333-9.216 1.237333-23.893333 3.413333-43.946666 6.656-32.426667 5.248-56.618667 8.618667-72.533334 10.112-25.002667 2.346667-45.312 2.346667-60.928 0-14.08-2.133333-23.936-6.016-29.525333-11.562666-5.546667-5.546667-8.32-15.146667-8.32-28.842667 0-28.16 6.357333-55.168 19.072-80.981333a213.845333 213.845333 0 0 1 53.546667-67.968 260.693333 260.693333 0 0 1 81.706666-47.232A295.68 295.68 0 0 1 512 551.68c49.92 0 93.482667 7.68 130.773333 23.082667z" fill="#FCB056" p-id="1920"></path><path d="M882.517333 706.986667l-49.92-8.661334a25.6 25.6 0 0 1-18.346666-13.226666l-23.594667-44.842667a25.6 25.6 0 0 0-45.312 0l-23.637333 44.8a25.6 25.6 0 0 1-18.261334 13.269333l-49.92 8.661334a25.6 25.6 0 0 0-14.037333 43.093333l35.328 36.309333a25.6 25.6 0 0 1 6.997333 21.504l-7.253333 50.133334a25.6 25.6 0 0 0 36.693333 26.624l45.44-22.357334a25.6 25.6 0 0 1 22.613334 0l45.482666 22.357334a25.6 25.6 0 0 0 36.608-26.624l-7.210666-50.133334a25.6 25.6 0 0 1 6.997333-21.504l35.328-36.352a25.6 25.6 0 0 0-13.994667-43.050666z" fill="#FCB056" p-id="1921"></path><path d="M810.666667 362.666667a192 192 0 1 1-384 0 192 192 0 0 1 384 0z" fill="#FCB056" fill-opacity=".5" p-id="1922"></path></svg>