<?xml version="1.0" standalone="no"?><!DOCTYPE svg PUBLIC "-//W3C//DTD SVG 1.1//EN" "http://www.w3.org/Graphics/SVG/1.1/DTD/svg11.dtd"><svg t="1719850508871" class="icon" viewBox="0 0 1024 1024" version="1.1" xmlns="http://www.w3.org/2000/svg" p-id="1145" xmlns:xlink="http://www.w3.org/1999/xlink" width="200" height="200"><path d="M810.666667 170.666667H213.333333a128 128 0 0 0-128 128v341.333333a128 128 0 0 0 128 128h597.333334a128 128 0 0 0 128-128V298.666667a128 128 0 0 0-128-128zM170.666667 298.666667a42.666667 42.666667 0 0 1 42.666666-42.666667h597.333334a42.666667 42.666667 0 0 1 42.666666 42.666667v341.333333a42.666667 42.666667 0 0 1-42.666666 42.666667H213.333333a42.666667 42.666667 0 0 1-42.666666-42.666667V298.666667zM213.333333 853.333333a42.666667 42.666667 0 0 0 42.666667 42.666667h512a42.666667 42.666667 0 1 0 0-85.333333H256a42.666667 42.666667 0 0 0-42.666667 42.666666z" fill="#FCB056" p-id="1146"></path><path d="M512 362.666667a64 64 0 0 1 64 64h85.333333a149.333333 149.333333 0 1 0-149.333333 149.333333v-85.333333a64 64 0 0 1 0-128z" fill="#FCB056" p-id="1147"></path><path d="M512 490.666667a64 64 0 0 1-64-64h-85.333333A149.333333 149.333333 0 1 0 512 277.333333v85.333334a64 64 0 0 1 0 128z" fill="#FCB056" p-id="1148"></path><path d="M768 490.666667a149.333333 149.333333 0 1 1-298.666667 0 149.333333 149.333333 0 0 1 298.666667 0z" fill="#FCB056" fill-opacity=".5" p-id="1149"></path><path d="M512 597.333333a128 128 0 0 1 128 128h85.333333a213.333333 213.333333 0 0 0-426.666666 0h85.333333a128 128 0 0 1 128-128z" fill="#FCB056" p-id="1150"></path></svg>