<?xml version="1.0" standalone="no"?><!DOCTYPE svg PUBLIC "-//W3C//DTD SVG 1.1//EN" "http://www.w3.org/Graphics/SVG/1.1/DTD/svg11.dtd"><svg t="1719850970467" class="icon" viewBox="0 0 1024 1024" version="1.1" xmlns="http://www.w3.org/2000/svg" p-id="1439" xmlns:xlink="http://www.w3.org/1999/xlink" width="200" height="200"><path d="M948.402087 795.530625c-4.885249 53.248-46.594024 91.933344-90.99434 86.092901-142.60313-18.011067-285.210308-36.026182-427.813439-54.045344-44.444838-5.84449-75.800285-46.509028-71.101217-90.508648a2992.132047 2992.132047 0 0 0 4.581692-589.24117c-3.966482-44.096759 27.235162-84.773439 70.753138-90.496506L853.174134 4.359083c43.485597-5.723067 85.040569 32.954182 90.646261 86.105043a3580.616348 3580.616348 0 0 1 4.581692 705.066499z" fill="#F8C51C" p-id="1440"></path><path d="M472.950387 663.681518c46.197375 3.314846 92.390704 6.637787 138.584032 9.95668a3271.465486 3271.465486 0 0 1-3.375557 42.619446l-138.592127-11.782071c1.214229-13.599368 2.343462-27.19064 3.383652-40.794055z" fill="#CCCCCC" p-id="1441"></path><path d="M556.33151 1019.819004c-142.307668-20.249296-284.611289-40.506688-426.918957-60.760032C85.072949 952.489992 54.377233 911.303336 59.610561 867.360379A2661.412427 2661.412427 0 0 0 64.188206 277.993739C59.679368 233.941502 90.217233 192.742704 133.638071 186.303241l418.467921-59.557945c43.380364-6.431368 85.696253 32.508964 92.075004 86.740491a3249.4677 3249.4677 0 0 1 4.585739 719.608917c-5.666403 54.352949-48.14419 93.293281-92.435225 86.7243z" fill="#EDEDED" p-id="1442"></path><path d="M174.658783 322.045976l374.994466-34.006514c1.473265 15.51785 2.841296 31.043794 4.091953 46.577834l-375.85657 28.441297a2783.240095 2783.240095 0 0 0-3.229849-41.012617zM182.304379 440.210719l275.071495-13.085344c0.75687 15.048348 1.396364 30.108838 1.922529 45.165281-91.8443 2.999146-183.684553 5.998292-275.528854 9.005534a2775.833296 2775.833296 0 0 0-1.46517-41.085471zM184.882593 558.529265c126.275794-0.590925 252.547542-1.193992 378.827383-1.788965 0.14166 15.574514 0.17404 31.14498 0.093091 46.723542l-379.203794-3.836965c0.190229-13.696506 0.287368-27.401107 0.28332-41.097612zM182.401518 676.835668c109.42634 4.152664 218.85268 8.321518 328.27902 12.478229-0.526166 15.315478-1.169708 30.626909-1.92253 45.93834-109.466814-5.791874-218.937676-11.5797-328.40449-17.363478 0.789249-13.684364 1.469217-27.368727 2.048-41.053091zM174.869249 794.959937l138.503083 11.199241c-1.173755 14.344095-2.448696 28.680095-3.832917 43.012047l-138.462609-13.255336c1.359937-13.647937 2.622735-27.299921 3.792443-40.955952z" fill="#B0B0B0" p-id="1443"></path></svg>