<?xml version="1.0" standalone="no"?><!DOCTYPE svg PUBLIC "-//W3C//DTD SVG 1.1//EN" "http://www.w3.org/Graphics/SVG/1.1/DTD/svg11.dtd"><svg t="1716047654334" class="icon" viewBox="0 0 1024 1024" version="1.1" xmlns="http://www.w3.org/2000/svg" p-id="1328" xmlns:xlink="http://www.w3.org/1999/xlink" width="200" height="200"><path d="M85.333333 234.666667a170.666667 170.666667 0 0 1 170.666667-170.666667h512a170.666667 170.666667 0 0 1 170.666667 170.666667v554.666666a170.666667 170.666667 0 0 1-170.666667 170.666667H256a170.666667 170.666667 0 0 1-170.666667-170.666667V234.666667z" fill="#A51A12" p-id="1329"></path><path d="M85.333333 234.666667a170.666667 170.666667 0 0 1 170.666667-170.666667h512a170.666667 170.666667 0 0 1 170.666667 170.666667v512a170.666667 170.666667 0 0 1-170.666667 170.666666H256a170.666667 170.666667 0 0 1-170.666667-170.666666V234.666667z" fill="#EF4D43" p-id="1330"></path><path d="M170.666667 597.333333a85.333333 85.333333 0 0 1 85.333333-85.333333h149.333333a85.333333 85.333333 0 0 1 85.333334 85.333333v149.333334a85.333333 85.333333 0 0 1-85.333334 85.333333h-149.333333a85.333333 85.333333 0 0 1-85.333333-85.333333v-149.333334z" fill="#E3DCD6" p-id="1331"></path><path d="M170.666667 597.333333a85.333333 85.333333 0 0 1 85.333333-85.333333h149.333333a85.333333 85.333333 0 0 1 85.333334 85.333333v128a85.333333 85.333333 0 0 1-85.333334 85.333334h-149.333333a85.333333 85.333333 0 0 1-85.333333-85.333334v-128z" fill="#E3DCD6" p-id="1332"></path><path d="M170.666667 597.333333a85.333333 85.333333 0 0 1 85.333333-85.333333h149.333333a85.333333 85.333333 0 0 1 85.333334 85.333333v128a85.333333 85.333333 0 0 1-85.333334 85.333334h-149.333333a85.333333 85.333333 0 0 1-85.333333-85.333334v-128z" fill="#FDF6EF" p-id="1333"></path><path d="M262.250667 592.917333a21.333333 21.333333 0 0 1 30.165333 0l106.666667 106.666667a21.333333 21.333333 0 0 1-30.165334 30.165333l-106.666666-106.666666a21.333333 21.333333 0 0 1 0-30.165334z" fill="#381715" p-id="1334"></path><path d="M399.082667 592.917333a21.333333 21.333333 0 0 1 0 30.165334l-106.666667 106.666666a21.333333 21.333333 0 0 1-30.165333-30.165333l106.666666-106.666667a21.333333 21.333333 0 0 1 30.165334 0z" fill="#381715" p-id="1335"></path><path d="M533.333333 234.666667a85.333333 85.333333 0 0 1 85.333334-85.333334h149.333333a85.333333 85.333333 0 0 1 85.333333 85.333334v149.333333a85.333333 85.333333 0 0 1-85.333333 85.333333h-149.333333a85.333333 85.333333 0 0 1-85.333334-85.333333v-149.333333z" fill="#E3DCD6" p-id="1336"></path><path d="M533.333333 234.666667a85.333333 85.333333 0 0 1 85.333334-85.333334h149.333333a85.333333 85.333333 0 0 1 85.333333 85.333334v128a85.333333 85.333333 0 0 1-85.333333 85.333333h-149.333333a85.333333 85.333333 0 0 1-85.333334-85.333333v-128z" fill="#E3DCD6" p-id="1337"></path><path d="M533.333333 234.666667a85.333333 85.333333 0 0 1 85.333334-85.333334h149.333333a85.333333 85.333333 0 0 1 85.333333 85.333334v128a85.333333 85.333333 0 0 1-85.333333 85.333333h-149.333333a85.333333 85.333333 0 0 1-85.333334-85.333333v-128z" fill="#FDF6EF" p-id="1338"></path><path d="M608 298.666667a21.333333 21.333333 0 0 1 21.333333-21.333334h128a21.333333 21.333333 0 1 1 0 42.666667h-128a21.333333 21.333333 0 0 1-21.333333-21.333333z" fill="#381715" p-id="1339"></path><path d="M533.333333 597.333333a85.333333 85.333333 0 0 1 85.333334-85.333333h149.333333a85.333333 85.333333 0 0 1 85.333333 85.333333v149.333334a85.333333 85.333333 0 0 1-85.333333 85.333333h-149.333333a85.333333 85.333333 0 0 1-85.333334-85.333333v-149.333334z" fill="#E3DCD6" p-id="1340"></path><path d="M533.333333 597.333333a85.333333 85.333333 0 0 1 85.333334-85.333333h149.333333a85.333333 85.333333 0 0 1 85.333333 85.333333v128a85.333333 85.333333 0 0 1-85.333333 85.333334h-149.333333a85.333333 85.333333 0 0 1-85.333334-85.333334v-128z" fill="#E3DCD6" p-id="1341"></path><path d="M533.333333 597.333333a85.333333 85.333333 0 0 1 85.333334-85.333333h149.333333a85.333333 85.333333 0 0 1 85.333333 85.333333v128a85.333333 85.333333 0 0 1-85.333333 85.333334h-149.333333a85.333333 85.333333 0 0 1-85.333334-85.333334v-128z" fill="#FDF6EF" p-id="1342"></path><path d="M597.333333 618.666667a21.333333 21.333333 0 0 1 21.333334-21.333334h149.333333a21.333333 21.333333 0 1 1 0 42.666667h-149.333333a21.333333 21.333333 0 0 1-21.333334-21.333333zM597.333333 704a21.333333 21.333333 0 0 1 21.333334-21.333333h149.333333a21.333333 21.333333 0 1 1 0 42.666666h-149.333333a21.333333 21.333333 0 0 1-21.333334-21.333333z" fill="#381715" p-id="1343"></path><path d="M170.666667 234.666667a85.333333 85.333333 0 0 1 85.333333-85.333334h149.333333a85.333333 85.333333 0 0 1 85.333334 85.333334v149.333333a85.333333 85.333333 0 0 1-85.333334 85.333333h-149.333333a85.333333 85.333333 0 0 1-85.333333-85.333333v-149.333333z" fill="#E3DCD6" p-id="1344"></path><path d="M170.666667 234.666667a85.333333 85.333333 0 0 1 85.333333-85.333334h149.333333a85.333333 85.333333 0 0 1 85.333334 85.333334v128a85.333333 85.333333 0 0 1-85.333334 85.333333h-149.333333a85.333333 85.333333 0 0 1-85.333333-85.333333v-128z" fill="#E3DCD6" p-id="1345"></path><path d="M170.666667 234.666667a85.333333 85.333333 0 0 1 85.333333-85.333334h149.333333a85.333333 85.333333 0 0 1 85.333334 85.333334v128a85.333333 85.333333 0 0 1-85.333334 85.333333h-149.333333a85.333333 85.333333 0 0 1-85.333333-85.333333v-128z" fill="#FDF6EF" p-id="1346"></path><path d="M245.333333 298.666667a21.333333 21.333333 0 0 1 21.333334-21.333334h128a21.333333 21.333333 0 1 1 0 42.666667h-128a21.333333 21.333333 0 0 1-21.333334-21.333333z" fill="#381715" p-id="1347"></path><path d="M330.666667 213.333333a21.333333 21.333333 0 0 1 21.333333 21.333334v128a21.333333 21.333333 0 1 1-42.666667 0v-128a21.333333 21.333333 0 0 1 21.333334-21.333334z" fill="#381715" p-id="1348"></path></svg>