<?xml version="1.0" standalone="no"?><!DOCTYPE svg PUBLIC "-//W3C//DTD SVG 1.1//EN" "http://www.w3.org/Graphics/SVG/1.1/DTD/svg11.dtd"><svg t="1719850523129" class="icon" viewBox="0 0 1024 1024" version="1.1" xmlns="http://www.w3.org/2000/svg" p-id="1454" xmlns:xlink="http://www.w3.org/1999/xlink" width="200" height="200"><path d="M128 768a42.666667 42.666667 0 1 0 0 85.333333h768a42.666667 42.666667 0 1 0 0-85.333333h-213.333333V213.333333a85.333333 85.333333 0 0 0-85.333334-85.333333H256a85.333333 85.333333 0 0 0-85.333333 85.333333v554.666667H128z m128 0V213.333333h341.333333v554.666667H256z" fill="#FCB056" p-id="1455"></path><path d="M768 256h-128v85.333333h128v448h85.333333V341.333333a85.333333 85.333333 0 0 0-85.333333-85.333333zM341.333333 341.333333a42.666667 42.666667 0 0 0 42.666667 42.666667h85.333333a42.666667 42.666667 0 1 0 0-85.333333H384a42.666667 42.666667 0 0 0-42.666667 42.666666z m0 170.666667a42.666667 42.666667 0 0 0 42.666667 42.666667h85.333333a42.666667 42.666667 0 1 0 0-85.333334H384a42.666667 42.666667 0 0 0-42.666667 42.666667z" fill="#FCB056" p-id="1456"></path><path d="M384 640h85.333333a42.666667 42.666667 0 0 1 42.666667 42.666667v128a42.666667 42.666667 0 0 1-42.666667 42.666666H384a42.666667 42.666667 0 0 1-42.666667-42.666666v-128a42.666667 42.666667 0 0 1 42.666667-42.666667z" fill="#FCB056" p-id="1457"></path><path d="M469.333333 298.666667h298.666667a42.666667 42.666667 0 0 1 42.666667 42.666666v426.666667a42.666667 42.666667 0 0 1-42.666667 42.666667h-298.666667a42.666667 42.666667 0 0 1-42.666666-42.666667V341.333333a42.666667 42.666667 0 0 1 42.666666-42.666666z" fill="#FCB056" fill-opacity=".5" p-id="1458"></path></svg>