<?xml version="1.0" standalone="no"?><!DOCTYPE svg PUBLIC "-//W3C//DTD SVG 1.1//EN" "http://www.w3.org/Graphics/SVG/1.1/DTD/svg11.dtd"><svg t="1719850530818" class="icon" viewBox="0 0 1024 1024" version="1.1" xmlns="http://www.w3.org/2000/svg" p-id="1610" xmlns:xlink="http://www.w3.org/1999/xlink" width="200" height="200"><path d="M768 213.333333v384h85.333333V213.333333a128 128 0 0 0-128-128H298.666667a128 128 0 0 0-128 128v595.370667c0 17.066667 3.242667 33.493333 9.813333 49.152 6.272 15.146667 15.146667 28.586667 26.666667 40.362667 11.52 11.733333 24.746667 20.949333 39.722666 27.562666a126.72 126.72 0 0 0 48.938667 10.922667L383.061333 938.666667H448v-85.333334H384.469333l-86.741333-1.962666a41.130667 41.130667 0 0 1-29.568-12.8 41.173333 41.173333 0 0 1-12.16-29.866667V213.333333a42.666667 42.666667 0 0 1 42.666667-42.666666h426.666666a42.666667 42.666667 0 0 1 42.666667 42.666666z" fill="#FCB056" p-id="1611"></path><path d="M814.762667 707.072a42.666667 42.666667 0 1 1 76.373333 38.101333l-84.992 169.898667a42.666667 42.666667 0 0 1-68.309333 11.093333l-86.144-86.144-37.12 74.24a42.666667 42.666667 0 1 1-76.373334-38.101333l63.658667-127.232a42.666667 42.666667 0 0 1 68.309333-11.093333l86.144 86.144 58.453334-116.906667zM414.165333 268.501333L512 366.336l97.834667-97.834667a42.666667 42.666667 0 1 1 60.330666 60.330667l-128 128a42.666667 42.666667 0 0 1-60.330666 0l-128-128a42.666667 42.666667 0 1 1 60.330666-60.330667zM341.333333 597.333333a42.666667 42.666667 0 0 0 42.666667 42.666667h256a42.666667 42.666667 0 1 0 0-85.333333H384a42.666667 42.666667 0 0 0-42.666667 42.666666z" fill="#FCB056" p-id="1612"></path><path d="M341.333333 469.333333a42.666667 42.666667 0 0 0 42.666667 42.666667h256a42.666667 42.666667 0 1 0 0-85.333333H384a42.666667 42.666667 0 0 0-42.666667 42.666666z" fill="#FCB056" p-id="1613"></path><path d="M554.666667 426.666667a42.666667 42.666667 0 1 0-85.333334 0v256a42.666667 42.666667 0 1 0 85.333334 0v-256z" fill="#FCB056" p-id="1614"></path><path d="M469.333333 341.333333h298.666667a42.666667 42.666667 0 0 1 42.666667 42.666667v426.666667a42.666667 42.666667 0 0 1-42.666667 42.666666h-298.666667a42.666667 42.666667 0 0 1-42.666666-42.666666V384a42.666667 42.666667 0 0 1 42.666666-42.666667z" fill="#FCB056" fill-opacity=".5" p-id="1615"></path></svg>