<?xml version="1.0" standalone="no"?><!DOCTYPE svg PUBLIC "-//W3C//DTD SVG 1.1//EN" "http://www.w3.org/Graphics/SVG/1.1/DTD/svg11.dtd"><svg t="1719850385042" class="icon" viewBox="0 0 1024 1024" version="1.1" xmlns="http://www.w3.org/2000/svg" p-id="991" xmlns:xlink="http://www.w3.org/1999/xlink" width="200" height="200"><path d="M512 512a213.333333 213.333333 0 1 0 0-426.666667 213.333333 213.333333 0 0 0 0 426.666667z m0-341.333333a128 128 0 1 1 0 256 128 128 0 0 1 0-256z" fill="#FCB056" p-id="992"></path><path d="M673.834667 584.874667l60.330666-60.373334c-16.853333-16.853333-47.402667-30.848-91.733333-42.026666A531.157333 531.157333 0 0 0 512 466.346667a380.373333 380.373333 0 0 0-130.816 22.698666 345.301333 345.301333 0 0 0-108.16 62.72 298.24 298.24 0 0 0-74.496 94.976A265.258667 265.258667 0 0 0 170.666667 765.44c0 37.333333 11.136 67.114667 33.450666 89.301333 18.773333 18.688 44.373333 30.506667 76.885334 35.413334 22.528 3.456 49.792 3.669333 81.792 0.64 17.749333-1.706667 43.776-5.248 78.08-10.794667 36.181333-5.845333 59.904-8.746667 71.125333-8.746667h64v-85.333333H512c-10.88 0-24.490667 1.066667-40.746667 3.157333-9.216 1.237333-23.893333 3.413333-43.946666 6.656-32.426667 5.248-56.618667 8.618667-72.533334 10.112-25.002667 2.346667-45.312 2.346667-60.928 0-14.08-2.133333-23.936-6.016-29.525333-11.562666-5.546667-5.546667-8.32-15.146667-8.32-28.842667 0-28.16 6.357333-55.168 19.072-80.981333a213.845333 213.845333 0 0 1 53.546667-67.968 260.693333 260.693333 0 0 1 81.706666-47.232A295.68 295.68 0 0 1 512 551.68c37.290667 0 73.813333 4.522667 109.568 13.525333 15.146667 3.84 28.032 8.021333 38.656 12.544 4.437333 1.92 8.106667 3.754667 11.093333 5.461334a30.037333 30.037333 0 0 1 2.517334 1.706666z" fill="#FCB056" p-id="993"></path><path d="M743.594667 924.586667l-98.858667-57.173334a48.768 48.768 0 0 1-24.362667-42.24v-114.346666c0-17.450667 9.301333-33.536 24.362667-42.24l98.858667-57.173334c15.104-8.704 33.706667-8.704 48.810666 0l98.858667 57.173334c15.061333 8.704 24.362667 24.789333 24.362667 42.24v114.346666c0 17.450667-9.301333 33.536-24.32 42.24l-98.901334 57.173334c-15.104 8.704-33.706667 8.704-48.810666 0zM768 832a64 64 0 1 0 0-128 64 64 0 0 0 0 128z" fill="#FCB056" p-id="994"></path><path d="M810.666667 362.666667a192 192 0 1 1-384 0 192 192 0 0 1 384 0z" fill="#FCB056" fill-opacity=".5" p-id="995"></path></svg>