<?xml version="1.0" standalone="no"?><!DOCTYPE svg PUBLIC "-//W3C//DTD SVG 1.1//EN" "http://www.w3.org/Graphics/SVG/1.1/DTD/svg11.dtd"><svg t="1719850943671" class="icon" viewBox="0 0 1024 1024" version="1.1" xmlns="http://www.w3.org/2000/svg" p-id="1281" xmlns:xlink="http://www.w3.org/1999/xlink" width="200" height="200"><path d="M935.376 794.408c-4.704 24.008-28.696 46.848-52.764 50.472-233.664 34.236-467.328 34.236-700.992 0-24.08-3.624-48.068-26.464-52.764-50.472-38.004-198.9-38.004-397.792 0-596.684 4.7-24.008 28.688-46.852 52.764-50.48 233.664-34.228 467.328-34.228 700.992 0 24.072 3.628 48.064 26.472 52.764 50.48 38.008 198.892 38.008 397.792 0 596.684z" fill="#DBA400" p-id="1282"></path><path d="M951.28 385.376a4718.748 4718.748 0 0 0-380.184-18.76c-22.236-52.256-43.636-104.496-63.132-156.412a2459.228 2459.228 0 0 0-139.82 5.192c-27.16 1.78-54.32 4.012-81.476 6.7a2512.368 2512.368 0 0 0-151.892 19.724c-22.012 3.632-45.152 24.996-50.592 47.036-49.924 206.54-49.924 413.088 0 619.632 5.44 22.04 28.58 43.4 50.592 47.032 262.872 42.272 525.752 42.272 788.616 0 22.016-3.632 45.156-24.996 50.592-47.032 38.58-159.604 47.344-319.204 26.304-478.808-2.956-22.048-25.384-42.1-49.008-44.304z" fill="#FFBF00" p-id="1283"></path></svg>