<?xml version="1.0" standalone="no"?><!DOCTYPE svg PUBLIC "-//W3C//DTD SVG 1.1//EN" "http://www.w3.org/Graphics/SVG/1.1/DTD/svg11.dtd"><svg t="1719850556556" class="icon" viewBox="0 0 1024 1024" version="1.1" xmlns="http://www.w3.org/2000/svg" p-id="2074" xmlns:xlink="http://www.w3.org/1999/xlink" width="200" height="200"><path d="M768 128H256a128 128 0 0 0-128 128v512a128 128 0 0 0 128 128h512a128 128 0 0 0 128-128V256a128 128 0 0 0-128-128zM213.333333 256a42.666667 42.666667 0 0 1 42.666667-42.666667h512a42.666667 42.666667 0 0 1 42.666667 42.666667v512a42.666667 42.666667 0 0 1-42.666667 42.666667H256a42.666667 42.666667 0 0 1-42.666667-42.666667V256z" fill="#FCB056" p-id="2075"></path><path d="M640 170.666667v682.666666h-85.333333V170.666667h85.333333z" fill="#FCB056" p-id="2076"></path><path d="M213.333333 597.333333h382.933334v85.333334H213.333333v-85.333334zM682.666667 682.666667v-85.333334a42.666667 42.666667 0 1 1 85.333333 0v85.333334a42.666667 42.666667 0 1 1-85.333333 0z" fill="#FCB056" p-id="2077"></path><path d="M256 170.666667h298.666667a42.666667 42.666667 0 0 1 42.666666 42.666666v384a42.666667 42.666667 0 0 1-42.666666 42.666667H256a42.666667 42.666667 0 0 1-42.666667-42.666667V213.333333a42.666667 42.666667 0 0 1 42.666667-42.666666z" fill="#FCB056" fill-opacity=".5" p-id="2078"></path></svg>